<svg width="460" height="159" viewBox="0 0 460 159" fill="none" xmlns="http://www.w3.org/2000/svg">
<g clip-path="url(#clip0_8_119)">
<path d="M374.33 123.59C370.84 108.09 377.64 93.79 379.59 78.93C379.86 76.84 380.2 74.76 380.5 72.68C381.27 69.58 381.74 66.35 382.95 63.43C383.58 61.89 385.43 59.95 386.88 59.82C391.72 59.37 396.63 59.65 401.57 59.65C398.51 75.79 395.56 91.41 392.6 107.03C389.74 120.22 386.88 133.41 384.04 146.6C383.41 149.52 382.83 152.45 381.21 155.38C378.92 144.79 376.63 134.2 374.33 123.6V123.59Z" fill="#EDEDEE"/>
<path d="M411.37 117.81C410.95 117.37 410.54 116.93 410.12 116.49V60.04H427.73V117.81H411.37Z" fill="#EEEEEE"/>
<path d="M410.51 156.7C410.47 146.95 410.29 137.19 410.53 127.45C410.56 126.07 412.62 124.75 413.75 123.4H427.77C428.04 126.58 428.26 129.24 428.48 131.9V157.62C422.27 157.62 416.85 157.62 411.42 157.62C411.12 157.32 410.81 157.01 410.51 156.71V156.7Z" fill="#EEEEEE"/>
<path d="M458.83 59.7V77.04H434.27V59.75C442.47 59.75 450.67 59.75 458.88 59.75L458.83 59.7Z" fill="#EEEEEE"/>
<path d="M434.3 156.7V140.45C437.33 140.27 439.81 140.12 442.29 139.98H458.54C458.77 142.77 458.96 145.03 459.14 147.29C459.14 150.54 459.14 153.8 459.14 157.62C450.69 157.62 442.95 157.62 435.21 157.62C434.91 157.31 434.6 157.01 434.3 156.7Z" fill="#EEEEEE"/>
<path d="M434.34 100.03H450.16V117.25H434.34V100.03Z" fill="#EEEEEE"/>
<path d="M290.05 59.44C295.93 59.51 301.82 59.36 307.67 59.78C309.32 59.9 311.85 61.41 312.25 62.79C313.65 67.54 314.29 72.52 315.23 77.41C319.19 96.68 323.14 115.95 327.1 135.23C326.91 135.56 326.82 135.91 326.83 136.29C326.45 136.37 326.08 136.51 325.74 136.69C315.14 136.6 304.53 136.55 293.93 136.42C290.64 136.38 289.19 137.48 288.75 141.1C288.06 146.76 286.41 152.3 285.17 157.89C280.82 157.91 276.48 157.92 272.13 157.94C268.83 157.96 267.08 157.58 268.41 153.21C270.03 147.91 270.31 142.2 271.17 136.67C271.47 135.48 271.76 134.28 272.06 133.09C272.05 132.69 272.04 132.29 272.02 131.89C273.13 127.67 274.23 123.46 275.52 118.53H305.62C303.68 109.11 301.9 100.46 300.12 91.8C299.76 91.85 299.4 91.91 299.04 91.96C297.5 98.85 295.96 105.75 294.36 112.93C289.77 112.93 285.39 113.28 281.13 112.74C279.69 112.56 277.35 109.98 277.48 108.71C277.99 103.76 279.32 98.89 280.35 93.99C282.4 83.33 284.38 72.65 286.64 62.04C286.87 60.98 288.88 60.3 290.06 59.44H290.05Z" fill="#EEEEEE"/>
<path d="M345.76 104.64C344.15 95.34 342.55 86.04 340.91 76.74C339.9 71.04 338.82 65.36 337.77 59.68H355.33C358.58 75.54 361.75 91.17 365.02 106.78C366.12 112.02 367.51 117.2 368.77 122.4C370.49 131.87 372.23 141.34 373.91 150.81C374.28 152.89 374.41 155.01 374.75 157.91C369.57 157.91 364.83 158.3 360.23 157.69C358.67 157.48 356.59 154.94 356.19 153.15C353.78 142.25 351.87 131.24 349.61 120.3C348.53 115.03 347.06 109.85 345.76 104.63V104.64Z" fill="#EDEDEE"/>
<path d="M329.5 144.91C330.06 149.08 330.62 153.26 331.24 157.92C326.41 157.92 321.46 158.23 316.6 157.73C315.17 157.58 313.3 155.34 312.81 153.7C311.77 150.21 311.5 146.5 310.83 142.34H326.91C327.77 143.2 328.63 144.05 329.49 144.91H329.5Z" fill="#EEEEEE"/>
<path d="M185.2 136.62C183.67 126.22 182.18 115.82 180.59 105.43C180.36 103.95 179.7 102.54 179.24 101.09C178.32 94 177.46 86.91 176.48 79.84C175.57 73.25 174.53 66.68 173.45 59.44H187.77C193.9 60.39 191.37 65.74 192.73 69.12C195.15 84.77 197.53 100.42 200.02 116.06C201.81 127.33 203.76 138.57 205.64 149.83C206.02 152.11 206.4 154.4 206.77 156.68C201.2 157.07 195.63 157.55 190.05 157.73C189.34 157.75 188.07 156.3 187.92 155.39C186.89 149.16 186.08 142.89 185.2 136.63V136.62Z" fill="#EEEEEE"/>
<path d="M224.44 110.57C226.04 102.56 227.63 94.54 229.23 86.53C229.56 86.56 229.88 86.6 230.21 86.63C231.49 95.03 232.77 103.42 234.05 111.82C234.54 111.82 235.03 111.83 235.52 111.84C237.47 98 239.42 84.16 241.37 70.32C241.75 68.3 241.73 66.09 242.61 64.32C243.5 62.53 245.15 60.06 246.71 59.87C251.51 59.29 256.43 59.66 261.38 59.66C260.93 64.49 260.55 68.54 260.17 72.59C258.65 81.24 257.03 89.87 255.63 98.53C254.74 104.01 254.16 109.55 253.44 115.06C252.17 121.45 250.8 127.81 249.67 134.23C248.77 139.34 248.17 144.51 247.44 149.66C246.92 152.29 246.4 154.91 245.8 157.94C239.36 157.94 233.06 158.26 226.83 157.72C225.19 157.58 222.89 155 222.42 153.15C219.34 140.96 221.52 128.94 224.26 116.97C224.73 114.93 224.4 112.71 224.45 110.57H224.44Z" fill="#EEEEEE"/>
<path d="M205.41 82.14C206.28 76.02 206.88 69.83 208.2 63.81C208.56 62.17 210.96 60.73 212.73 59.75C213.79 59.16 215.44 59.68 216.82 59.63C228.73 59.17 227.12 60.17 225.56 70.89C223.69 83.71 221.65 96.51 219.68 109.32C217.77 120.26 215.86 131.2 213.93 142.14C213.48 144.7 212.94 147.25 211.39 149.87C209.86 140.81 208.25 131.76 206.83 122.68C205.88 116.59 204.7 110.47 204.52 104.34C204.31 96.96 205.07 89.55 205.41 82.15V82.14Z" fill="#EDEDEE"/>
<path d="M382.1 39.51C387.93 40.43 389.09 37.58 388.86 32.7C388.52 25.44 388.77 18.16 388.77 10.4C381.86 10.62 380.25 7.00001 382.09 1.14001C393.44 -1.16999 398.05 2.41001 398.06 13.65C398.06 20.93 397.88 28.22 398.12 35.5C398.32 41.59 395.04 44.83 389.82 46.69C382.77 49.2 381.3 47.94 382.1 39.52V39.51Z" fill="#EEEEEE"/>
<path d="M379 1.58001C379.07 15.34 379.03 29.11 379.26 42.86C379.37 49.2 375.25 47.74 371.21 47.55V0.640015C373.54 0.640015 375.82 0.640015 378.1 0.640015C378.4 0.950015 378.7 1.26001 379 1.57001V1.58001Z" fill="#EEEEEE"/>
<path d="M323.98 9.90001V35.32C321.88 35.64 320.24 35.89 318.6 36.15C314.77 36.41 315.4 33.43 315 31.21C315.09 22.45 315.39 13.69 315.18 4.94001C315.09 1.28001 316.4 6.31809e-06 319.79 0.210006C322.5 0.160006 324.1 1.07001 323.78 4.19001C323.59 6.06001 323.9 7.98001 323.98 9.88001V9.90001Z" fill="#EEEEEE"/>
<path d="M417.12 21.74C421.25 21.2 425.38 20.65 430.6 19.97V38.33C427.71 41.47 424.94 44.74 421.8 47.6C421.28 48.07 417.98 46.85 417.94 46.28C417.78 44.03 417.62 41.04 418.9 39.57C423.18 34.66 423.18 32.52 418.83 28.2C417.46 26.84 417.64 23.94 417.11 21.75L417.12 21.74Z" fill="#EDEDEE"/>
<path d="M403.13 6.35998C407.817 2.45331 411.727 0.596648 414.86 0.789981C413.76 7.40998 412.66 13.98 411.57 20.55C411.44 23.06 411.32 25.58 411.19 28.04C403.65 29.6 403.05 29.17 403.04 22.18C403.04 16.9 403.09 11.63 403.13 6.34998V6.35998Z" fill="#EDEDEE"/>
<path d="M350.76 0.820007C350.76 8.22001 350.42 15.11 350.86 21.95C351.25 27.99 348.92 29.93 342.81 28.44V0.820007H350.75H350.76Z" fill="#EEEEEE"/>
<path d="M403.46 31.45H410.53C412.3 36.73 413.95 41.69 415.66 46.77C406.37 48.69 402.35 43.32 403.46 31.45Z" fill="#EEEEEE"/>
<path d="M350.6 46.57C347.6 47.59 344.41 50.05 342.18 45.43C342.25 43.09 342.34 40.76 342.38 38.42C342.41 36.3 342.38 34.18 342.38 31.64H350.6V46.57Z" fill="#EEEEEE"/>
<path d="M434.96 38.32C435.09 36.2 435.22 34.08 435.38 31.59H443.68V46.61C436.16 49.36 435.49 48.72 434.96 38.32Z" fill="#EEEEEE"/>
<path d="M364.72 0.72998C364.72 3.30998 364.72 5.56998 364.72 7.83998C352.73 10.83 352.28 10.55 353.68 0.72998H364.73H364.72Z" fill="#EEEEEE"/>
<path d="M446.9 46.61C447.06 44.48 447.22 42.35 447.41 39.87H458.42C459.04 44.91 455.647 47.61 448.24 47.97C447.79 47.52 447.35 47.07 446.9 46.61Z" fill="#EDEDED"/>
<path d="M356.66 47.99C355.41 47.14 354.15 46.28 352.9 45.43C353.03 43.69 353.16 41.95 353.32 39.86H364.21C365.79 47.37 365.68 47.49 356.66 47.99Z" fill="#EEEEEE"/>
<path d="M361.36 21.01C361 24.44 363.23 28.85 357.1 28.81C351.25 28.77 353.76 24.33 352.86 21.01H361.37H361.36Z" fill="#EEEEEE"/>
<path d="M436.14 0.539978H443.01V28C435.93 29.68 435.17 29.16 435.18 22.2C435.18 15.33 435.27 8.44998 435.37 1.57998C435.37 1.26998 435.82 0.959978 436.14 0.539978Z" fill="#EEEEEE"/>
<path d="M422.89 16.41C420.8 10.67 419.16 6.15002 417.49 1.56002C424.22 -1.33998 426.9 2.87002 429.12 6.06002C430.49 8.04002 430.61 11.79 429.69 14.1C429.14 15.48 425.47 15.62 422.9 16.41H422.89Z" fill="#EEEEEE"/>
<path d="M447.44 9.34003V0.720032H458.07C460.33 9.70003 458.97 10.85 447.44 9.34003Z" fill="#EDEDED"/>
<path d="M453.79 28.56H447.45V20.86C449.34 20.76 451.36 20.65 453.79 20.53V28.56Z" fill="#EDEDED"/>
<path d="M306.91 26.47C306.06 32.41 305.45 38.41 304.19 44.27C303.88 45.68 301.35 47.63 299.92 47.57C297.43 47.45 293.05 46.22 292.89 45C292.15 39.56 292.37 33.94 292.76 28.42C293 25.04 294.2 21.73 295.22 17.3C296.71 19.37 297.55 20.53 299.26 22.9C299.45 19.18 299.56 16.92 299.67 14.67C300.59 10.19 301.5 5.71 302.51 0.809998H310.59C309.35 9.49 308.14 17.99 306.92 26.48L306.91 26.47Z" fill="#EDEDEE"/>
<path d="M293.44 9.83003C291.67 19.96 289.9 30.08 287.85 41.83C283.16 27.43 282.28 14.43 286.06 0.760032C287.08 0.620032 288.57 0.420032 290.06 0.220032C291.25 1.28003 293.12 2.16003 293.47 3.44003C294.01 5.42003 293.51 7.69003 293.45 9.83003H293.44Z" fill="#EDEDED"/>
<path d="M327.02 47.73C326.49 45.21 325.95 42.7 325.37 39.94C326.97 39.72 327.72 39.54 328.48 39.53C330.82 39.49 333.17 39.52 335.98 39.52V47.7C333.1 47.7 330.04 47.7 326.99 47.7L327.03 47.73H327.02Z" fill="#EEEEEE"/>
<path d="M323.33 46.54C317.01 49.02 314.39 47.78 315.18 42.41C315.35 41.23 317.41 40.33 318.59 39.3C319.94 39.43 321.28 39.57 323.33 39.77V46.54Z" fill="#EEEEEE"/>
<path d="M265.49 25.29C265.41 28.83 264.92 32.42 265.34 35.9C265.97 41.13 263.03 44.18 259.18 46.27C257.44 47.22 254.71 46.37 252.43 46.34C252.92 43.95 253.21 41.48 253.99 39.19C254.39 38.01 256.44 37.16 256.47 36.13C256.7 27.87 257.34 19.5 256.2 11.39C255.88 9.06002 250.64 7.15002 252.06 2.84002C252.39 1.82002 253.57 1.08002 254.36 0.210022C261.2 0.930022 265.17 5.20002 265.24 11.85C265.29 16.33 265.4 20.81 265.49 25.29Z" fill="#EDEDEE"/>
<path d="M284.06 47.66C276.12 47.94 276.09 47.95 274.66 39.13C274.1 35.72 273.7 32.28 273.23 28.85C271.84 19.58 270.45 10.31 269.02 0.73999H277.63C279.92 15.74 282.2 30.56 284.42 45.39C284.53 46.11 284.19 46.9 284.05 47.66H284.06Z" fill="#EDEDEE"/>
<path d="M206.54 5.15998C206.04 3.74998 205.54 2.33998 205.03 0.909985C211.5 -1.01002 214.95 1.17998 216.67 7.51998C218.01 12.46 220.46 17.1 223.45 21.71V0.699985H232.14C232.14 15.42 232.26 29.91 231.92 44.39C231.89 45.63 228.72 46.8 227.01 48C220.49 47.85 222.03 41.6 219.63 38.33C215.76 28.85 211.89 19.37 208.02 9.88999C207.53 8.31999 207.03 6.73998 206.54 5.16998V5.15998Z" fill="#EDEDED"/>
<path d="M173.75 46.56C173.63 37.89 173.51 29.22 173.38 20.55C173.5 14.25 173.63 7.94002 173.75 1.64002C174.07 1.29002 174.4 0.930017 174.72 0.580017H182.05C182.05 10.59 182.19 20.54 182 30.48C181.89 36.07 181.23 41.65 180.81 47.24C178.78 47.37 176.75 47.49 174.72 47.62C174.4 47.26 174.08 46.91 173.76 46.55L173.75 46.56Z" fill="#EEEEEE"/>
<path d="M197.85 0.75C199.73 12.96 194.82 23.9 184.38 30.05C184.24 24.44 183.52 19.64 187.36 14.59C189.98 11.14 190.09 5.8 191.47 0.75H197.84H197.85Z" fill="#EDEDED"/>
<path d="M212.94 35.95V47.5C210.37 47.61 208.32 47.71 204.99 47.85C204.99 35.53 204.99 23.52 204.99 11.51L205.35 11.59L205.48 11.25C209.34 19.07 213.18 26.9 212.94 35.95Z" fill="#EDEDEE"/>
<path d="M198.66 47.38C190.16 48.1 190.09 48.1 190.16 40.56C190.21 34.71 188.76 28.37 195.32 23.82C201.17 31.13 197.22 39.38 198.66 47.38Z" fill="#EDEDED"/>
<path d="M246.25 20.56C246.19 24.9 245.86 29.25 246.17 33.56C246.32 35.6 247.88 37.51 248.46 39.57C249.14 42.04 249.45 44.61 249.93 47.14C242.91 48.02 237.75 43.73 237.7 37.57C237.63 28.69 237.67 19.81 237.68 10.93C237.69 3.1 240.96 0.140004 249.94 0.790004C249.43 3.92 248.93 7.01 248.43 10.09C247.64 10.84 246.24 11.53 246.17 12.34C245.94 15.06 246.19 17.81 246.25 20.55V20.56Z" fill="#EEEEEE"/>
<path d="M130.44 74.09C120.36 74.36 110.27 74.63 100.19 74.9H90.96C90.96 81.78 90.68 88.44 91.04 95.06C91.37 101.11 88.33 103.18 82.92 103.29C79.44 103.36 75.96 103.44 72.48 103.51H63.25C63.25 109.3 63.26 114.89 63.25 120.48C63.22 129.35 61.65 130.87 52.53 130.88C47.11 130.88 41.7 130.88 35.53 130.88C35.53 137.7 35.9 143.98 35.35 150.17C35.13 152.68 32.89 155.01 31.57 157.42C22.5 157.75 13.43 158.28 4.37 158.22C2.91 158.22 1.46 155.59 0 154.18C1.53 153 2.99 150.93 4.6 150.81C10.67 150.39 16.8 150.77 22.88 150.45C24.42 150.37 25.89 148.82 27.39 147.95C27.46 141.85 27.84 135.74 27.52 129.66C27.26 124.74 29.47 122.99 33.94 123C40.71 123 47.49 123 55.32 123C55.32 116.3 55.54 109.85 55.25 103.42C54.99 97.55 57.34 94.97 63.3 95.33C66.78 95.54 70.29 95.24 73.79 95.17H83.03C83.03 87.99 83.17 81.5 82.99 75.02C82.84 69.72 85.25 67.62 90.46 67.74C96.34 67.88 102.22 67.64 108.11 67.57C113.83 67.57 119.55 67.57 125.27 67.57C128.72 68.37 133.3 68.27 130.45 74.06L130.44 74.09Z" fill="#FF5722"/>
<path d="M105.42 63.86C102.31 63.47 99.19 63.07 96.08 62.68C95.96 45.44 95.84 28.2 95.72 10.96V0H106.1C106.1 4.96 106.1 9.9 106.1 14.84C106.1 16.42 106.1 18 106.1 19.58C105.87 34.34 105.64 49.1 105.41 63.86H105.42Z" fill="#FF5722"/>
<path d="M107.41 14.79C115.51 11.23 116.35 11.75 118.64 19.77C121.97 31.47 125.28 43.19 129.27 54.67C131.02 59.7 129.81 62.12 125.18 63.65C123.47 62.53 120.7 61.74 120.22 60.24C115.9 46.67 111.99 32.98 107.95 19.32L107.41 14.79Z" fill="#FF5722"/>
<path d="M94.82 62.49C91.62 63.08 88.42 63.67 84.14 64.47C84.14 56.53 84.14 49.87 84.14 43.22C84.14 33.67 84.24 24.11 84.09 14.56C84.04 11.43 84.8 9.54003 88.31 9.78003C90.49 10.05 92.66 10.32 94.83 10.6C94.47 22.52 93.96 34.44 93.83 46.37C93.77 51.74 94.46 57.12 94.82 62.5V62.49Z" fill="#FF5722"/>
<path d="M66.02 54.53C70.21 55.97 74.41 57.41 78.9 58.95C75.9 62.56 73.15 65.86 70.41 69.15C69.81 69.08 69.22 69.02 68.62 68.95V62.19C67.18 60.03 65.8 57.97 64.43 55.91C64.96 55.45 65.49 54.99 66.02 54.53Z" fill="#FF5722"/>
</g>
<defs>
<clipPath id="clip0_8_119">
<rect width="459.15" height="158.24" fill="white"/>
</clipPath>
</defs>
</svg>
